<?xml version="1.0" encoding="UTF-8"?>
<svg version="1.1" xmlns="http://www.w3.org/2000/svg" width="64" height="64">
<path d="M0 0 C21.12 0 42.24 0 64 0 C64 21.12 64 42.24 64 64 C42.88 64 21.76 64 0 64 C0 42.88 0 21.76 0 0 Z " fill="#FCFCFC" transform="translate(0,0)"/>
<path d="M0 0 C6.6 0 13.2 0 20 0 C20.10851234 3.83410271 20.18757134 7.66509683 20.25 11.5 C20.30027344 13.11648437 20.30027344 13.11648437 20.3515625 14.765625 C20.44116911 22.11336715 19.74553723 27.97809429 14.5871582 33.51708984 C8.41548815 39.01377981 2.53736522 39.43612194 -5.375 39.5625 C-6.29539062 39.61212891 -7.21578125 39.66175781 -8.1640625 39.71289062 C-12.13829443 39.7725041 -14.9053277 39.76944357 -18.22363281 37.43701172 C-19.98446101 35.70409801 -21.55769671 34.00468599 -23 32 C-23 31.67 -23 31.34 -23 31 C-22.23856689 30.98541748 -21.47713379 30.97083496 -20.69262695 30.95581055 C-17.23208112 30.88119459 -13.77248555 30.78457741 -10.3125 30.6875 C-9.11431641 30.66494141 -7.91613281 30.64238281 -6.68164062 30.61914062 C-5.52470703 30.58369141 -4.36777344 30.54824219 -3.17578125 30.51171875 C-2.11270752 30.48553467 -1.04963379 30.45935059 0.0456543 30.43237305 C4.15705011 29.83066393 6.80560295 28.1495742 9.76953125 25.296875 C11.51029951 22.04744091 11.56817955 18.85688661 11.6875 15.25 C11.72166016 14.55261719 11.75582031 13.85523438 11.79101562 13.13671875 C11.87308295 11.42502892 11.93822919 9.7125424 12 8 C8.04 8 4.08 8 0 8 C0 5.36 0 2.72 0 0 Z " fill="#070707" transform="translate(34,19)"/>
<path d="M0 0 C0 2.64 0 5.28 0 8 C-0.59167969 8.08636719 -1.18335937 8.17273437 -1.79296875 8.26171875 C-7.34144055 9.24831488 -10.34749222 10.43436527 -14 15 C-15.14654482 17.29308963 -15.19729117 18.79909656 -15.31640625 21.3515625 C-15.35830078 22.20234375 -15.40019531 23.053125 -15.44335938 23.9296875 C-15.48267578 24.81914062 -15.52199219 25.70859375 -15.5625 26.625 C-15.60568359 27.5221875 -15.64886719 28.419375 -15.69335938 29.34375 C-15.79956861 31.56234283 -15.90161194 33.7810488 -16 36 C-18.64 36 -21.28 36 -24 36 C-24.11760715 32.83365364 -24.18771024 29.66787926 -24.25 26.5 C-24.30027344 25.1696875 -24.30027344 25.1696875 -24.3515625 23.8125 C-24.45718446 16.6302068 -22.98741827 11.46192989 -18.25390625 5.9765625 C-12.07071362 1.03572035 -7.90205676 -0.26786633 0 0 Z " fill="#090909" transform="translate(34,6)"/>
</svg>
